<?xml version="1.0" encoding="iso-8859-1"?>
<!-- Generator: Adobe Illustrator 18.1.1, SVG Export Plug-In . SVG Version: 6.00 Build 0)  -->
<svg version="1.1" id="Capa_1" xmlns="http://www.w3.org/2000/svg" xmlns:xlink="http://www.w3.org/1999/xlink" x="0px" y="0px"
	 viewBox="0 0 15.571 15.571" style="enable-background:new 0 0 15.571 15.571;" xml:space="preserve">
<g>
	<g>
		<path style="fill:#030104;" d="M3.73,3.771h0.708c0.26,0,0.471-0.166,0.471-0.374V0.373C4.909,0.166,4.7,0,4.438,0H3.73
			C3.47,0,3.258,0.167,3.258,0.373v3.024C3.258,3.605,3.47,3.771,3.73,3.771z"/>
		<path style="fill:#030104;" d="M11.132,3.771h0.707c0.263,0,0.471-0.166,0.471-0.374V0.373C12.31,0.166,12.102,0,11.839,0h-0.707
			c-0.26,0-0.471,0.167-0.471,0.373v3.024C10.662,3.605,10.872,3.771,11.132,3.771z"/>
		<path style="fill:#030104;" d="M14.751,1.443h-1.876v2.316c0,0.517-0.465,0.938-1.037,0.938h-0.707
			c-0.572,0-1.038-0.421-1.038-0.938V1.443h-4.62v2.316c0,0.517-0.465,0.938-1.038,0.938H3.73c-0.57,0-1.037-0.421-1.037-0.938
			V1.443H0.816c-0.312,0-0.566,0.255-0.566,0.568v12.994c0,0.313,0.254,0.566,0.347,0.566h13.938c0.53,0,0.786-0.253,0.786-0.566
			V2.009C15.32,1.698,15.064,1.443,14.751,1.443z M14.447,14.287c0,0.564-0.486,0.515-0.486,0.515H8.88c0,0,3.107-1.557,5.567-3.768
			C14.447,11.034,14.447,13.635,14.447,14.287z M14.554,9.474c-0.213,0.841-0.684,1.815-1.543,1.178
			c-1.252-0.927-2.486-1.714-2.645,0.15c-0.131,1.57-3.033,3.705-3.665,4.151H1.193c-0.099,0-0.177-0.079-0.177-0.177v-8.01
			c0-0.099,0.079-0.178,0.177-0.178h13.184c0.097,0,0.178,0.079,0.178,0.178L14.554,9.474L14.554,9.474z"/>
		<rect x="3.258" y="7.97" style="fill:#030104;" width="2.202" height="2.201"/>
		<rect x="6.88" y="7.97" style="fill:#030104;" width="2.2" height="2.201"/>
		<rect x="3.258" y="11.309" style="fill:#030104;" width="2.202" height="2.201"/>
		<path style="fill:#030104;" d="M6.88,13.51h0.637c0.465-0.436,1.168-1.157,1.563-1.652v-0.549h-2.2V13.51z"/>
		<path style="fill:#030104;" d="M10.386,9.008c0.222-0.217,0.489-0.283,0.729-0.283c0.453,0,0.952,0.253,1.471,0.596V7.97h-2.2
			V9.008z"/>
	</g>
</g>
<g>
</g>
<g>
</g>
<g>
</g>
<g>
</g>
<g>
</g>
<g>
</g>
<g>
</g>
<g>
</g>
<g>
</g>
<g>
</g>
<g>
</g>
<g>
</g>
<g>
</g>
<g>
</g>
<g>
</g>
</svg>
