<svg xmlns="http://www.w3.org/2000/svg" viewBox="0 0 50 50">
    <path d="M 24.5 2 C 21.474279 2 19 4.4742785 19 7.5 C 19 10.525721 21.474279 13 24.5 13 C 27.525721 13 30 10.525721 30 7.5 C 30 4.4742785 27.525721 2 24.5 2 z M 24.5 4 C 26.444841 4 28 5.5551587 28 7.5 C 28 9.4448413 26.444841 11 24.5 11 C 22.555159 11 21 9.4448413 21 7.5 C 21 5.5551587 22.555159 4 24.5 4 z M 15 16 A 1.0001 1.0001 0 0 0 14 17 L 14 23 A 1.0001 1.0001 0 0 0 15 24 L 20 24 L 20 40 L 15 40 A 1.0001 1.0001 0 0 0 14 41 L 14 47 A 1.0001 1.0001 0 0 0 15 48 L 21 48 L 29 48 L 35 48 A 1.0001 1.0001 0 0 0 36 47 L 36 41 A 1.0001 1.0001 0 0 0 35 40 L 30 40 L 30 25 L 30 17 A 1.0001 1.0001 0 0 0 29 16 L 21 16 L 15 16 z M 16 18 L 21 18 L 28 18 L 28 25 L 28 41 A 1.0001 1.0001 0 0 0 29 42 L 34 42 L 34 46 L 29 46 L 21 46 L 16 46 L 16 42 L 21 42 A 1.0001 1.0001 0 0 0 22 41 L 22 23 A 1.0001 1.0001 0 0 0 21 22 L 16 22 L 16 18 z"/>
</svg>
