<svg height="512pt" viewBox="0 0 512 512" width="512pt" xmlns="http://www.w3.org/2000/svg"><path d="m63.230469 311.335938c8.285156 0 15-6.71875 15-15v-38.496094l36.542969 49.722656c2.878906 3.921875 7.40625 6.121094 12.089843 6.121094 1.558594 0 3.132813-.246094 4.671875-.75 6.160156-2.019532 10.324219-7.769532 10.324219-14.253906v-86.578126c0-8.285156-6.714844-15-15-15s-15 6.714844-15 15v40.839844l-36.542969-49.722656c-3.839844-5.226562-10.597656-7.390625-16.761718-5.371094-6.160157 2.019532-10.324219 7.769532-10.324219 14.253906v84.234376c0 8.28125 6.714843 15 15 15zm0 0"/><path d="m171.222656 313.679688h50.464844c8.28125 0 15-6.714844 15-15 0-8.28125-6.71875-15-15-15h-35.464844v-13.5h17.152344c8.285156 0 15-6.71875 15-15 0-8.285157-6.714844-15-15-15h-17.152344v-13.078126h35.464844c8.28125 0 15-6.714843 15-15 0-8.285156-6.71875-15-15-15h-50.464844c-8.28125 0-15 6.714844-15 15v86.578126c0 8.285156 6.71875 15 15 15zm0 0"/><path d="m411.570312 267.960938h18.167969c2.148438 0 4.03125 2.535156 4.03125 5.429687v4.863281c0 2.890625-1.882812 5.425782-4.03125 5.425782h-32.292969c-8.285156 0-15 6.71875-15 15 0 8.285156 6.714844 15 15 15h32.292969c18.765625 0 34.03125-15.894532 34.03125-35.425782v-4.863281c0-19.539063-15.265625-35.429687-34.03125-35.429687h-18.167969c-2.148437 0-4.03125-2.539063-4.03125-5.429688s1.882813-5.429688 4.03125-5.429688h26.03125c8.28125 0 15-6.714843 15-15 0-8.285156-6.71875-15-15-15h-26.03125c-18.765624 0-34.03125 15.894532-34.03125 35.429688s15.265626 35.429688 34.03125 35.429688zm0 0"/><path d="m272.089844 313.679688h21.300781c4.472656 0 8.695313-1.117188 12.429687-3.085938 3.734376 1.96875 7.953126 3.085938 12.425782 3.085938h21.304687c15.121094 0 27.425781-12.710938 27.425781-28.339844v-73.664063c0-8.285156-6.714843-15-15-15-8.285156 0-15 6.714844-15 15v72.003907h-16.15625v-33.964844c0-8.28125-6.71875-15-15-15-8.285156 0-15 6.71875-15 15v33.964844h-16.160156v-72.003907c0-8.285156-6.714844-15-15-15-8.28125 0-15 6.714844-15 15v73.664063c0 15.628906 12.304688 28.339844 27.429688 28.339844zm0 0"/><path d="m497 152.136719h-6.957031c-19.214844-43.289063-49.910157-80.242188-89.203125-107.25-42.726563-29.367188-92.808594-44.886719-144.839844-44.886719-51.785156 0-101.671875 15.386719-144.269531 44.5-39.542969 27.019531-70.449219 64.128906-89.765625 107.636719h-6.964844c-8.285156 0-15 6.714843-15 15v176.082031c0 8.285156 6.714844 15 15 15h6.234375c19.03125 43.710938 49.71875 81.050781 89.183594 108.382812 42.890625 29.699219 93.230469 45.398438 145.582031 45.398438s102.691406-15.699219 145.582031-45.398438c39.464844-27.332031 70.152344-64.671874 89.183594-108.382812h6.234375c8.285156 0 15-6.714844 15-15v-176.082031c0-8.285157-6.714844-15-15-15zm-40.21875 0h-74.324219c-2.046875-8.738281-4.339843-17.210938-6.875-25.402344 19.179688-4.054687 37.445313-9.089844 54.402344-15.039063 10.339844 12.449219 19.320313 25.992188 26.796875 40.441407zm-72.9375-82.527344c8.105469 5.574219 15.796875 11.625 23.042969 18.113281-13.171875 4.066406-27.082031 7.585938-41.550781 10.515625-7.914063-19.054687-17.28125-35.957031-27.882813-50.179687-1.054687-1.414063-2.117187-2.800782-3.191406-4.15625 17.410156 6.425781 34.050781 15.03125 49.582031 25.707031zm-112.84375-37.269531c24.332031 7.574218 47.027344 33.195312 63.921875 71.082031-20.664063 2.890625-42.128906 4.648437-63.921875 5.207031zm0 106.296875c25.542969-.625 50.710938-2.828125 74.832031-6.507813 2.070313 6.433594 3.988281 13.109375 5.746094 20.007813h-80.578125zm-30-106.296875v76.289062c-21.796875-.558594-43.257812-2.316406-63.925781-5.207031 16.894531-37.890625 39.585937-63.511719 63.925781-71.082031zm0 106.296875v13.5h-80.578125c1.757813-6.894531 3.675781-13.574219 5.742187-20.007813 24.125 3.679688 49.292969 5.882813 74.835938 6.507813zm-112.34375-69.371094c15.390625-10.519531 31.863281-19 49.089844-25.359375-1.097656 1.390625-2.191406 2.796875-3.273438 4.246094-10.570312 14.207031-19.910156 31.078125-27.808594 50.085937-14.464843-2.929687-28.375-6.445312-41.546874-10.515625 7.394531-6.621094 15.25-12.792968 23.539062-18.457031zm-46.636719 42.433594c16.957031 5.949219 35.21875 10.980469 54.398438 15.035156-2.53125 8.191406-4.828125 16.664063-6.875 25.402344h-74.320313c7.476563-14.449219 16.460938-27.992188 26.796875-40.4375zm-27.648437 246.519531h74.789062c2.148438 9.359375 4.574219 18.382812 7.25 27.046875-19.175781 4.054687-37.441406 9.089844-54.398437 15.039063-10.730469-12.921876-20.003907-27.019532-27.640625-42.085938zm73.128906 83.71875c-7.867188-5.449219-15.335938-11.347656-22.382812-17.660156 13.171874-4.070313 27.082031-7.585938 41.550781-10.519532 8.820312 21.214844 19.34375 39.519532 31.175781 54.378907-17.695312-6.519531-34.589844-15.289063-50.34375-26.199219zm113.5 37.734375c-18.417969-5.726563-33.089844-21.023437-42.878906-34.304687-7.804688-10.585938-14.855469-22.941407-21.046875-36.789063 20.667969-2.890625 42.128906-4.652344 63.925781-5.207031zm0-106.308594c-25.546875.621094-50.722656 2.828125-74.847656 6.507813-2.238282-6.964844-4.289063-14.191406-6.148438-21.652344h80.996094zm30 106.308594v-76.300781c21.796875.554687 43.257812 2.316406 63.925781 5.207031-6.191406 13.847656-13.242187 26.203125-21.046875 36.789063-9.789062 13.28125-24.460937 28.578124-42.878906 34.304687zm0-106.308594v-15.144531h80.996094c-1.859375 7.460938-3.910156 14.6875-6.148438 21.652344-24.125-3.679688-49.300781-5.886719-74.847656-6.507813zm113.5 68.574219c-15.753906 10.910156-32.648438 19.679688-50.34375 26.199219 11.832031-14.859375 22.355469-33.164063 31.175781-54.378907 14.46875 2.933594 28.378907 6.449219 41.550781 10.519532-7.046874 6.308594-14.515624 12.210937-22.382812 17.660156zm45.488281-41.632812c-16.957031-5.949219-35.21875-10.984376-54.398437-15.039063 2.675781-8.664063 5.101562-17.6875 7.25-27.046875h74.789062c-7.636718 15.066406-16.90625 29.164062-27.640625 42.085938zm52.011719-72.085938h-452v-146.082031h452zm0 0"/></svg>